<svg width="189" height="32" viewBox="0 0 189 32" fill="none" xmlns="http://www.w3.org/2000/svg">
<path d="M33.3043 14.4182L18.6907 0.654379C17.7643 -0.218126 16.2589 -0.218126 15.3326 0.654379L0.718953 14.4182C-0.207425 15.2907 -0.207425 16.7085 0.718953 17.581L15.3326 31.3448C16.2589 32.2173 17.7643 32.2173 18.6907 31.3448L33.3043 17.581C34.2075 16.7085 34.2075 15.2907 33.3043 14.4182ZM18.2275 27.2222C17.5559 27.8547 16.4442 27.8547 15.7726 27.2222L5.07294 17.1447C4.40132 16.5122 4.40132 15.4652 5.07294 14.8326L15.7726 4.75515C16.4442 4.12258 17.5559 4.12258 18.2275 4.75515L28.9272 14.8326C29.5988 15.4652 29.5988 16.5122 28.9272 17.1447L18.2275 27.2222Z" fill="#1E293B"/>
<path d="M24.4339 25.8915L23.438 26.8304C23.7854 26.5029 24.1328 26.1972 24.4339 25.8915Z" fill="#EFEFEF"/>
<path d="M33.3278 14.44C31.2898 12.5205 27.4916 8.96504 27.4916 8.96504C27.8158 9.27041 28.1401 9.57579 28.4875 9.90298L27.4916 8.96504C19.5711 1.72324 16.4445 4.05719 15.8887 4.62432C15.8424 4.64613 15.7961 4.68976 15.7729 4.73338L5.0501 14.8326C4.37848 15.4652 4.37848 16.5122 5.0501 17.1448L15.7729 27.244C16.4445 27.8766 17.5562 27.8766 18.2278 27.244L28.9506 17.1448C29.576 16.5558 29.6223 15.6615 29.1128 15.0071C29.7844 15.6833 31.8456 18.6935 24.4346 25.8698L33.2815 17.5374C34.1847 16.7085 34.2773 15.3343 33.3278 14.44ZM25.7315 16.8394L17.8804 24.2339C17.3941 24.6919 16.5835 24.6919 16.074 24.2339L8.22294 16.8394C7.73659 16.3813 7.73659 15.6179 8.22294 15.138L16.074 7.74352C16.5603 7.28546 17.3709 7.28546 17.8804 7.74352L25.7315 15.138C26.241 15.6179 26.241 16.3813 25.7315 16.8394Z" fill="#EFEFEF"/>
<path d="M11.5115 8.7039L12.2305 8.02698C11.9754 8.26717 11.7435 8.48554 11.5115 8.7039Z" fill="#1E293B"/>
<path d="M9.26543 21.1144C9.03384 20.8963 8.77909 20.6781 8.54749 20.4382L9.26543 21.1144C15.7269 27.0256 17.8576 24.2336 17.8576 24.2336L17.8807 24.2118C17.3249 24.6917 16.5607 24.6698 16.0743 24.2118L8.2001 16.7955C8.2001 16.7955 5.21252 14.7887 11.5119 8.703L5.02724 14.8105C4.35562 15.4431 4.3093 16.4465 5.00409 17.1009" fill="#1E293B"/>
<path d="M9.56628 6.08664L10.5621 5.14771C10.1916 5.47524 9.86736 5.78094 9.56628 6.08664Z" fill="#D9D9D9"/>
<path d="M22.4656 23.2522C22.234 23.4704 22.0025 23.7103 21.7477 23.9284L22.4656 23.2522C28.8577 17.2101 25.7775 15.1597 25.7775 15.1597L25.7543 15.1379C26.2638 15.6614 26.2406 16.3813 25.7543 16.8393L17.8801 24.2556C17.8801 24.2556 15.9115 26.8295 10.029 21.7908L5.04975 17.1011C5.04975 17.1011 0.996843 14.3745 9.56584 6.08569L0.718912 14.4181C-0.184306 15.2688 -0.276933 16.643 0.672605 17.5373C2.71064 19.4568 15.2862 31.3011 15.2862 31.3011C15.2862 31.3011 15.2862 31.3011 15.2862 31.2793L6.48562 22.9905C6.16139 22.6851 5.83715 22.3797 5.48975 22.0525L6.48562 22.9905C14.1514 30.0142 17.3474 28.0292 18.0422 27.3966C18.0885 27.353 18.1348 27.3094 18.1811 27.2658C19.6865 25.8697 22.4656 23.2522 22.4656 23.2522Z" fill="#D9D9D9"/>
<path d="M6.48561 23.0133L5.48975 22.0743C5.83714 22.4019 6.16138 22.7076 6.48561 23.0133Z" fill="#1E293B"/>
<path d="M33.2348 17.6027L24.4342 25.8915C24.11 26.1969 23.7857 26.5023 23.4383 26.8295L24.4342 25.8915C31.8452 18.7152 29.8072 15.705 29.1356 15.0289C29.0893 14.9852 29.0429 14.9198 28.9966 14.8762C27.885 13.8292 26.0785 12.1496 25.2216 11.3207C25.2911 11.3861 25.3838 11.4734 25.4532 11.5388L24.7353 10.8626C18.2738 4.95141 16.1431 7.74343 16.1431 7.74343L16.12 7.76525C16.6758 7.28537 17.4401 7.30719 17.9264 7.76525L25.8006 15.1815C25.8006 15.1815 28.464 16.992 23.392 22.3579L18.2043 27.2439C18.2043 27.2439 15.3094 31.0611 6.50879 22.9905L15.3557 31.3229C16.2589 32.1736 17.718 32.2608 18.6675 31.3665C20.6592 29.4688 33.258 17.6027 33.2348 17.6027Z" fill="#1E293B"/>
<path d="M24.7119 10.8628C24.7119 10.8628 24.8975 11.0375 25.199 11.3214C25.0366 11.1685 24.8743 11.0156 24.7119 10.8628Z" fill="#1E293B"/>
<path d="M49.584 12.8605C50.0507 12.8605 50.4053 12.9165 50.648 13.0285C50.8907 13.1312 51.1053 13.2478 51.292 13.3785C51.404 13.4438 51.4927 13.4952 51.558 13.5325C51.6327 13.5605 51.7027 13.5745 51.768 13.5745C51.8613 13.5745 51.9267 13.5232 51.964 13.4205C52.0107 13.3178 52.048 13.1638 52.076 12.9585H52.398C52.3887 13.1172 52.3747 13.3085 52.356 13.5325C52.3467 13.7472 52.3373 14.0365 52.328 14.4005C52.328 14.7552 52.328 15.2265 52.328 15.8145H52.006C51.978 15.3665 51.88 14.9372 51.712 14.5265C51.544 14.1158 51.2967 13.7798 50.97 13.5185C50.6527 13.2572 50.2327 13.1265 49.71 13.1265C49.2153 13.1265 48.8047 13.2758 48.478 13.5745C48.1607 13.8732 48.002 14.2652 48.002 14.7505C48.002 15.1705 48.1093 15.5252 48.324 15.8145C48.5387 16.0945 48.8233 16.3512 49.178 16.5845C49.542 16.8085 49.934 17.0512 50.354 17.3125C50.8393 17.6112 51.2687 17.9098 51.642 18.2085C52.0247 18.4978 52.3233 18.8198 52.538 19.1745C52.762 19.5292 52.874 19.9585 52.874 20.4625C52.874 21.0598 52.7387 21.5545 52.468 21.9465C52.1973 22.3385 51.838 22.6325 51.39 22.8285C50.942 23.0245 50.4473 23.1225 49.906 23.1225C49.4113 23.1225 49.0193 23.0665 48.73 22.9545C48.4407 22.8425 48.1933 22.7258 47.988 22.6045C47.7827 22.4738 47.624 22.4085 47.512 22.4085C47.4187 22.4085 47.3487 22.4598 47.302 22.5625C47.2647 22.6652 47.232 22.8192 47.204 23.0245H46.882C46.9007 22.8285 46.91 22.5998 46.91 22.3385C46.9193 22.0678 46.924 21.7178 46.924 21.2885C46.9333 20.8592 46.938 20.3178 46.938 19.6645H47.26C47.2973 20.2245 47.4 20.7472 47.568 21.2325C47.7453 21.7178 48.0113 22.1098 48.366 22.4085C48.73 22.6978 49.2107 22.8425 49.808 22.8425C50.116 22.8425 50.4053 22.7818 50.676 22.6605C50.956 22.5298 51.1847 22.3292 51.362 22.0585C51.5393 21.7785 51.628 21.4192 51.628 20.9805C51.628 20.5978 51.5347 20.2665 51.348 19.9865C51.1707 19.6972 50.9187 19.4312 50.592 19.1885C50.2653 18.9365 49.8827 18.6798 49.444 18.4185C49.0053 18.1478 48.5947 17.8725 48.212 17.5925C47.8293 17.3125 47.5213 16.9905 47.288 16.6265C47.064 16.2532 46.952 15.8052 46.952 15.2825C46.952 14.7318 47.0733 14.2792 47.316 13.9245C47.568 13.5605 47.8947 13.2945 48.296 13.1265C48.6973 12.9492 49.1267 12.8605 49.584 12.8605ZM61.1205 13.3925V15.7305H63.1925V16.0105H61.1205V21.4285C61.1205 21.8672 61.1999 22.1752 61.3585 22.3525C61.5172 22.5298 61.7365 22.6185 62.0165 22.6185C62.2965 22.6185 62.5392 22.5065 62.7445 22.2825C62.9499 22.0492 63.1272 21.6618 63.2765 21.1205L63.5565 21.1905C63.4632 21.7318 63.2765 22.1892 62.9965 22.5625C62.7259 22.9358 62.3059 23.1225 61.7365 23.1225C61.4192 23.1225 61.1579 23.0805 60.9525 22.9965C60.7472 22.9218 60.5652 22.8098 60.4065 22.6605C60.2012 22.4458 60.0565 22.1892 59.9725 21.8905C59.8979 21.5918 59.8605 21.1952 59.8605 20.7005V16.0105H58.5165V15.7305H59.8605V13.5885C60.0939 13.5792 60.3179 13.5605 60.5325 13.5325C60.7472 13.5045 60.9432 13.4578 61.1205 13.3925ZM70.7038 23.0245C70.3211 23.0245 69.9898 22.9545 69.7098 22.8145C69.4298 22.6652 69.2151 22.4598 69.0658 22.1985C68.9258 21.9372 68.8558 21.6338 68.8558 21.2885C68.8558 20.8778 68.9491 20.5418 69.1358 20.2805C69.3318 20.0192 69.5791 19.8092 69.8778 19.6505C70.1764 19.4918 70.4891 19.3612 70.8158 19.2585C71.1518 19.1465 71.4691 19.0438 71.7678 18.9505C72.0664 18.8478 72.3091 18.7312 72.4958 18.6005C72.6918 18.4698 72.7898 18.2972 72.7898 18.0825V17.2145C72.7898 16.8225 72.7291 16.5238 72.6078 16.3185C72.4958 16.1132 72.3418 15.9778 72.1458 15.9125C71.9498 15.8378 71.7304 15.8005 71.4878 15.8005C71.2544 15.8005 71.0024 15.8332 70.7318 15.8985C70.4704 15.9638 70.2604 16.0992 70.1018 16.3045C70.2791 16.3418 70.4331 16.4352 70.5638 16.5845C70.6944 16.7338 70.7598 16.9252 70.7598 17.1585C70.7598 17.3918 70.6851 17.5785 70.5358 17.7185C70.3864 17.8492 70.1951 17.9145 69.9618 17.9145C69.6911 17.9145 69.4904 17.8305 69.3598 17.6625C69.2384 17.4852 69.1778 17.2892 69.1778 17.0745C69.1778 16.8318 69.2384 16.6358 69.3598 16.4865C69.4811 16.3372 69.6351 16.1972 69.8218 16.0665C70.0364 15.9172 70.3118 15.7912 70.6478 15.6885C70.9931 15.5765 71.3804 15.5205 71.8098 15.5205C72.1924 15.5205 72.5191 15.5672 72.7898 15.6605C73.0604 15.7445 73.2844 15.8705 73.4618 16.0385C73.7044 16.2625 73.8631 16.5378 73.9378 16.8645C74.0124 17.1818 74.0498 17.5645 74.0498 18.0125V21.9045C74.0498 22.1378 74.0824 22.3058 74.1478 22.4085C74.2224 22.5112 74.3344 22.5625 74.4838 22.5625C74.5864 22.5625 74.6844 22.5392 74.7778 22.4925C74.8711 22.4458 74.9831 22.3712 75.1138 22.2685L75.2678 22.5065C75.0718 22.6558 74.8851 22.7818 74.7078 22.8845C74.5304 22.9778 74.2924 23.0245 73.9938 23.0245C73.7231 23.0245 73.4991 22.9778 73.3218 22.8845C73.1444 22.7912 73.0091 22.6558 72.9158 22.4785C72.8318 22.2918 72.7898 22.0585 72.7898 21.7785C72.5378 22.1985 72.2344 22.5112 71.8798 22.7165C71.5344 22.9218 71.1424 23.0245 70.7038 23.0245ZM71.2078 22.4645C71.5158 22.4645 71.8004 22.3758 72.0618 22.1985C72.3324 22.0212 72.5751 21.7552 72.7898 21.4005V18.6565C72.6778 18.8152 72.5144 18.9505 72.2998 19.0625C72.0851 19.1652 71.8518 19.2725 71.5998 19.3845C71.3478 19.4872 71.1051 19.6132 70.8718 19.7625C70.6478 19.9025 70.4611 20.0892 70.3118 20.3225C70.1624 20.5558 70.0878 20.8592 70.0878 21.2325C70.0878 21.6058 70.1858 21.9045 70.3818 22.1285C70.5871 22.3525 70.8624 22.4645 71.2078 22.4645ZM84.9424 15.5205C85.1944 15.5205 85.4138 15.5718 85.6004 15.6745C85.7964 15.7772 85.9458 15.9125 86.0484 16.0805C86.1604 16.2392 86.2164 16.4212 86.2164 16.6265C86.2164 16.8598 86.1418 17.0652 85.9924 17.2425C85.8524 17.4198 85.6611 17.5085 85.4184 17.5085C85.2224 17.5085 85.0498 17.4478 84.9004 17.3265C84.7511 17.1958 84.6764 17.0138 84.6764 16.7805C84.6764 16.6032 84.7231 16.4538 84.8164 16.3325C84.9191 16.2018 85.0311 16.0992 85.1524 16.0245C85.0871 15.9312 84.9891 15.8845 84.8584 15.8845C84.5691 15.8845 84.3031 15.9732 84.0604 16.1505C83.8178 16.3185 83.6124 16.5378 83.4444 16.8085C83.2764 17.0792 83.1458 17.3685 83.0524 17.6765C82.9591 17.9752 82.9124 18.2552 82.9124 18.5165V21.4845C82.9124 21.9418 83.0431 22.2498 83.3044 22.4085C83.5751 22.5578 83.9391 22.6325 84.3964 22.6325V22.9265C84.1818 22.9172 83.8784 22.9078 83.4864 22.8985C83.0944 22.8798 82.6791 22.8705 82.2404 22.8705C81.9231 22.8705 81.6058 22.8798 81.2884 22.8985C80.9804 22.9078 80.7471 22.9172 80.5884 22.9265V22.6325C80.9711 22.6325 81.2418 22.5625 81.4004 22.4225C81.5684 22.2825 81.6524 22.0165 81.6524 21.6245V17.2425C81.6524 16.8225 81.5778 16.5145 81.4284 16.3185C81.2791 16.1132 80.9991 16.0105 80.5884 16.0105V15.7165C80.8871 15.7445 81.1764 15.7585 81.4564 15.7585C81.7271 15.7585 81.9838 15.7445 82.2264 15.7165C82.4784 15.6792 82.7071 15.6278 82.9124 15.5625V17.3125C83.0151 17.0418 83.1598 16.7712 83.3464 16.5005C83.5424 16.2205 83.7758 15.9872 84.0464 15.8005C84.3171 15.6138 84.6158 15.5205 84.9424 15.5205ZM93.6474 11.9505V21.6245C93.6474 22.0165 93.7174 22.2825 93.8574 22.4225C93.9974 22.5625 94.2354 22.6325 94.5714 22.6325V22.9265C94.422 22.9172 94.198 22.9078 93.8994 22.8985C93.61 22.8798 93.316 22.8705 93.0174 22.8705C92.7 22.8705 92.378 22.8798 92.0514 22.8985C91.7247 22.9078 91.482 22.9172 91.3234 22.9265V22.6325C91.706 22.6325 91.9767 22.5625 92.1354 22.4225C92.3034 22.2825 92.3874 22.0165 92.3874 21.6245V13.6305C92.3874 13.2105 92.3127 12.9025 92.1634 12.7065C92.014 12.5012 91.734 12.3985 91.3234 12.3985V12.1045C91.622 12.1325 91.9114 12.1465 92.1914 12.1465C92.462 12.1465 92.7187 12.1325 92.9614 12.1045C93.2134 12.0672 93.442 12.0158 93.6474 11.9505ZM98.0994 15.7165V15.9965C97.866 16.0152 97.6467 16.0805 97.4414 16.1925C97.236 16.2952 97.0354 16.4492 96.8394 16.6545L94.8654 18.7265L95.0614 18.3345L97.6654 21.9045C97.824 22.1192 97.9734 22.2872 98.1134 22.4085C98.2627 22.5298 98.44 22.6045 98.6454 22.6325V22.9265C98.5427 22.9172 98.3794 22.9078 98.1554 22.8985C97.9407 22.8798 97.726 22.8705 97.5114 22.8705C97.222 22.8705 96.928 22.8798 96.6294 22.8985C96.3307 22.9078 96.1067 22.9172 95.9574 22.9265V22.6325C96.144 22.6325 96.2747 22.5858 96.3494 22.4925C96.424 22.3992 96.41 22.2872 96.3074 22.1565L94.6974 19.8045C94.52 19.5525 94.3567 19.3892 94.2074 19.3145C94.0674 19.2398 93.862 19.1978 93.5914 19.1885V18.9085C93.89 18.8712 94.1327 18.8105 94.3194 18.7265C94.506 18.6332 94.6834 18.4978 94.8514 18.3205L95.8874 17.2425C96.186 16.9345 96.3354 16.6918 96.3354 16.5145C96.3354 16.3278 96.2374 16.1972 96.0414 16.1225C95.8547 16.0385 95.6074 15.9965 95.2994 15.9965V15.7165C95.542 15.7258 95.8127 15.7398 96.1114 15.7585C96.4194 15.7678 96.676 15.7725 96.8814 15.7725C97.04 15.7725 97.194 15.7725 97.3434 15.7725C97.4927 15.7632 97.6327 15.7538 97.7634 15.7445C97.894 15.7352 98.006 15.7258 98.0994 15.7165ZM105.643 12.2165C105.885 12.2165 106.095 12.3052 106.273 12.4825C106.45 12.6598 106.539 12.8698 106.539 13.1125C106.539 13.3552 106.45 13.5652 106.273 13.7425C106.095 13.9198 105.885 14.0085 105.643 14.0085C105.4 14.0085 105.19 13.9198 105.013 13.7425C104.835 13.5652 104.747 13.3552 104.747 13.1125C104.747 12.8698 104.835 12.6598 105.013 12.4825C105.19 12.3052 105.4 12.2165 105.643 12.2165ZM106.371 15.5625V21.6245C106.371 22.0165 106.45 22.2825 106.609 22.4225C106.777 22.5625 107.052 22.6325 107.435 22.6325V22.9265C107.276 22.9172 107.033 22.9078 106.707 22.8985C106.389 22.8798 106.067 22.8705 105.741 22.8705C105.423 22.8705 105.101 22.8798 104.775 22.8985C104.448 22.9078 104.205 22.9172 104.047 22.9265V22.6325C104.429 22.6325 104.7 22.5625 104.859 22.4225C105.027 22.2825 105.111 22.0165 105.111 21.6245V17.2425C105.111 16.8225 105.036 16.5145 104.887 16.3185C104.737 16.1132 104.457 16.0105 104.047 16.0105V15.7165C104.345 15.7445 104.635 15.7585 104.915 15.7585C105.185 15.7585 105.442 15.7445 105.685 15.7165C105.937 15.6792 106.165 15.6278 106.371 15.5625ZM116.45 15.5205C117.272 15.5205 117.911 15.7725 118.368 16.2765C118.835 16.7712 119.068 17.5458 119.068 18.6005H114.126L114.112 18.3345H117.724C117.743 17.8772 117.706 17.4572 117.612 17.0745C117.519 16.6825 117.37 16.3698 117.164 16.1365C116.968 15.9032 116.712 15.7865 116.394 15.7865C115.965 15.7865 115.582 16.0012 115.246 16.4305C114.92 16.8598 114.724 17.5412 114.658 18.4745L114.7 18.5305C114.682 18.6705 114.668 18.8245 114.658 18.9925C114.649 19.1605 114.644 19.3285 114.644 19.4965C114.644 20.1312 114.747 20.6772 114.952 21.1345C115.158 21.5918 115.424 21.9418 115.75 22.1845C116.086 22.4178 116.432 22.5345 116.786 22.5345C117.066 22.5345 117.332 22.4925 117.584 22.4085C117.836 22.3152 118.07 22.1658 118.284 21.9605C118.499 21.7552 118.686 21.4798 118.844 21.1345L119.124 21.2465C119.022 21.5545 118.854 21.8532 118.62 22.1425C118.387 22.4318 118.093 22.6698 117.738 22.8565C117.384 23.0338 116.973 23.1225 116.506 23.1225C115.834 23.1225 115.256 22.9685 114.77 22.6605C114.294 22.3525 113.926 21.9278 113.664 21.3865C113.412 20.8358 113.286 20.2058 113.286 19.4965C113.286 18.6752 113.417 17.9705 113.678 17.3825C113.94 16.7852 114.308 16.3278 114.784 16.0105C115.26 15.6838 115.816 15.5205 116.45 15.5205ZM129.734 15.5205C130.089 15.5205 130.383 15.5672 130.616 15.6605C130.859 15.7538 131.06 15.8845 131.218 16.0525C131.396 16.2392 131.522 16.4725 131.596 16.7525C131.671 17.0325 131.708 17.4105 131.708 17.8865V21.6245C131.708 22.0165 131.788 22.2825 131.946 22.4225C132.114 22.5625 132.39 22.6325 132.772 22.6325V22.9265C132.614 22.9172 132.371 22.9078 132.044 22.8985C131.718 22.8798 131.4 22.8705 131.092 22.8705C130.784 22.8705 130.481 22.8798 130.182 22.8985C129.893 22.9078 129.674 22.9172 129.524 22.9265V22.6325C129.86 22.6325 130.098 22.5625 130.238 22.4225C130.378 22.2825 130.448 22.0165 130.448 21.6245V17.5785C130.448 17.2892 130.425 17.0232 130.378 16.7805C130.332 16.5378 130.224 16.3418 130.056 16.1925C129.898 16.0432 129.65 15.9685 129.314 15.9685C128.922 15.9685 128.577 16.0805 128.278 16.3045C127.989 16.5285 127.76 16.8365 127.592 17.2285C127.434 17.6112 127.354 18.0405 127.354 18.5165V21.6245C127.354 22.0165 127.424 22.2825 127.564 22.4225C127.704 22.5625 127.942 22.6325 128.278 22.6325V22.9265C128.129 22.9172 127.905 22.9078 127.606 22.8985C127.317 22.8798 127.018 22.8705 126.71 22.8705C126.402 22.8705 126.085 22.8798 125.758 22.8985C125.432 22.9078 125.189 22.9172 125.03 22.9265V22.6325C125.413 22.6325 125.684 22.5625 125.842 22.4225C126.01 22.2825 126.094 22.0165 126.094 21.6245V17.2425C126.094 16.8225 126.02 16.5145 125.87 16.3185C125.721 16.1132 125.441 16.0105 125.03 16.0105V15.7165C125.329 15.7445 125.618 15.7585 125.898 15.7585C126.169 15.7585 126.426 15.7445 126.668 15.7165C126.92 15.6792 127.149 15.6278 127.354 15.5625V17.2145C127.597 16.5798 127.933 16.1412 128.362 15.8985C128.801 15.6465 129.258 15.5205 129.734 15.5205ZM140.79 15.5205C141.163 15.5205 141.48 15.5812 141.742 15.7025C142.003 15.8238 142.194 15.9358 142.316 16.0385C142.624 16.2905 142.81 16.1225 142.876 15.5345H143.198C143.179 15.7958 143.165 16.1085 143.156 16.4725C143.146 16.8272 143.142 17.3078 143.142 17.9145H142.82C142.764 17.5692 142.666 17.2332 142.526 16.9065C142.395 16.5798 142.199 16.3138 141.938 16.1085C141.676 15.8938 141.336 15.7865 140.916 15.7865C140.589 15.7865 140.314 15.8798 140.09 16.0665C139.875 16.2438 139.768 16.5098 139.768 16.8645C139.768 17.1445 139.852 17.3872 140.02 17.5925C140.188 17.7885 140.407 17.9752 140.678 18.1525C140.948 18.3205 141.242 18.5072 141.56 18.7125C141.914 18.9365 142.236 19.1652 142.526 19.3985C142.815 19.6318 143.044 19.8885 143.212 20.1685C143.389 20.4485 143.478 20.7798 143.478 21.1625C143.478 21.5918 143.366 21.9512 143.142 22.2405C142.918 22.5298 142.624 22.7492 142.26 22.8985C141.905 23.0478 141.513 23.1225 141.084 23.1225C140.878 23.1225 140.682 23.1038 140.496 23.0665C140.318 23.0385 140.146 22.9918 139.978 22.9265C139.884 22.8798 139.786 22.8238 139.684 22.7585C139.59 22.6932 139.497 22.6232 139.404 22.5485C139.31 22.4738 139.226 22.4785 139.152 22.5625C139.077 22.6372 139.021 22.7912 138.984 23.0245H138.662C138.68 22.7258 138.694 22.3618 138.704 21.9325C138.713 21.5032 138.718 20.9338 138.718 20.2245H139.04C139.105 20.7472 139.198 21.2045 139.32 21.5965C139.441 21.9885 139.632 22.2965 139.894 22.5205C140.155 22.7352 140.519 22.8425 140.986 22.8425C141.172 22.8425 141.359 22.8005 141.546 22.7165C141.742 22.6325 141.905 22.4925 142.036 22.2965C142.166 22.1005 142.232 21.8392 142.232 21.5125C142.232 21.1018 142.082 20.7658 141.784 20.5045C141.485 20.2432 141.107 19.9678 140.65 19.6785C140.314 19.4638 139.996 19.2492 139.698 19.0345C139.408 18.8198 139.17 18.5772 138.984 18.3065C138.806 18.0358 138.718 17.7092 138.718 17.3265C138.718 16.9065 138.811 16.5658 138.998 16.3045C139.194 16.0338 139.45 15.8378 139.768 15.7165C140.085 15.5858 140.426 15.5205 140.79 15.5205ZM151.699 13.3925V15.7305H153.771V16.0105H151.699V21.4285C151.699 21.8672 151.779 22.1752 151.937 22.3525C152.096 22.5298 152.315 22.6185 152.595 22.6185C152.875 22.6185 153.118 22.5065 153.323 22.2825C153.529 22.0492 153.706 21.6618 153.855 21.1205L154.135 21.1905C154.042 21.7318 153.855 22.1892 153.575 22.5625C153.305 22.9358 152.885 23.1225 152.315 23.1225C151.998 23.1225 151.737 23.0805 151.531 22.9965C151.326 22.9218 151.144 22.8098 150.985 22.6605C150.78 22.4458 150.635 22.1892 150.551 21.8905C150.477 21.5918 150.439 21.1952 150.439 20.7005V16.0105H149.095V15.7305H150.439V13.5885C150.673 13.5792 150.897 13.5605 151.111 13.5325C151.326 13.5045 151.522 13.4578 151.699 13.3925ZM162.697 15.5205C163.518 15.5205 164.157 15.7725 164.615 16.2765C165.081 16.7712 165.315 17.5458 165.315 18.6005H160.373L160.359 18.3345H163.971C163.989 17.8772 163.952 17.4572 163.859 17.0745C163.765 16.6825 163.616 16.3698 163.411 16.1365C163.215 15.9032 162.958 15.7865 162.641 15.7865C162.211 15.7865 161.829 16.0012 161.493 16.4305C161.166 16.8598 160.97 17.5412 160.905 18.4745L160.947 18.5305C160.928 18.6705 160.914 18.8245 160.905 18.9925C160.895 19.1605 160.891 19.3285 160.891 19.4965C160.891 20.1312 160.993 20.6772 161.199 21.1345C161.404 21.5918 161.67 21.9418 161.997 22.1845C162.333 22.4178 162.678 22.5345 163.033 22.5345C163.313 22.5345 163.579 22.4925 163.831 22.4085C164.083 22.3152 164.316 22.1658 164.531 21.9605C164.745 21.7552 164.932 21.4798 165.091 21.1345L165.371 21.2465C165.268 21.5545 165.1 21.8532 164.867 22.1425C164.633 22.4318 164.339 22.6698 163.985 22.8565C163.63 23.0338 163.219 23.1225 162.753 23.1225C162.081 23.1225 161.502 22.9685 161.017 22.6605C160.541 22.3525 160.172 21.9278 159.911 21.3865C159.659 20.8358 159.533 20.2058 159.533 19.4965C159.533 18.6752 159.663 17.9705 159.925 17.3825C160.186 16.7852 160.555 16.3278 161.031 16.0105C161.507 15.6838 162.062 15.5205 162.697 15.5205ZM172.873 12.2165C173.115 12.2165 173.325 12.3052 173.503 12.4825C173.68 12.6598 173.769 12.8698 173.769 13.1125C173.769 13.3552 173.68 13.5652 173.503 13.7425C173.325 13.9198 173.115 14.0085 172.873 14.0085C172.63 14.0085 172.42 13.9198 172.243 13.7425C172.065 13.5652 171.977 13.3552 171.977 13.1125C171.977 12.8698 172.065 12.6598 172.243 12.4825C172.42 12.3052 172.63 12.2165 172.873 12.2165ZM173.601 15.5625V21.6245C173.601 22.0165 173.68 22.2825 173.839 22.4225C174.007 22.5625 174.282 22.6325 174.665 22.6325V22.9265C174.506 22.9172 174.263 22.9078 173.937 22.8985C173.619 22.8798 173.297 22.8705 172.971 22.8705C172.653 22.8705 172.331 22.8798 172.005 22.8985C171.678 22.9078 171.435 22.9172 171.277 22.9265V22.6325C171.659 22.6325 171.93 22.5625 172.089 22.4225C172.257 22.2825 172.341 22.0165 172.341 21.6245V17.2425C172.341 16.8225 172.266 16.5145 172.117 16.3185C171.967 16.1132 171.687 16.0105 171.277 16.0105V15.7165C171.575 15.7445 171.865 15.7585 172.145 15.7585C172.415 15.7585 172.672 15.7445 172.915 15.7165C173.167 15.6792 173.395 15.6278 173.601 15.5625ZM184.982 15.5205C185.337 15.5205 185.631 15.5672 185.864 15.6605C186.107 15.7538 186.308 15.8845 186.466 16.0525C186.644 16.2392 186.77 16.4725 186.844 16.7525C186.919 17.0325 186.956 17.4105 186.956 17.8865V21.6245C186.956 22.0165 187.036 22.2825 187.194 22.4225C187.362 22.5625 187.638 22.6325 188.02 22.6325V22.9265C187.862 22.9172 187.619 22.9078 187.292 22.8985C186.966 22.8798 186.648 22.8705 186.34 22.8705C186.032 22.8705 185.729 22.8798 185.43 22.8985C185.141 22.9078 184.922 22.9172 184.772 22.9265V22.6325C185.108 22.6325 185.346 22.5625 185.486 22.4225C185.626 22.2825 185.696 22.0165 185.696 21.6245V17.5785C185.696 17.2892 185.673 17.0232 185.626 16.7805C185.58 16.5378 185.472 16.3418 185.304 16.1925C185.146 16.0432 184.898 15.9685 184.562 15.9685C184.17 15.9685 183.825 16.0805 183.526 16.3045C183.237 16.5285 183.008 16.8365 182.84 17.2285C182.682 17.6112 182.602 18.0405 182.602 18.5165V21.6245C182.602 22.0165 182.672 22.2825 182.812 22.4225C182.952 22.5625 183.19 22.6325 183.526 22.6325V22.9265C183.377 22.9172 183.153 22.9078 182.854 22.8985C182.565 22.8798 182.266 22.8705 181.958 22.8705C181.65 22.8705 181.333 22.8798 181.006 22.8985C180.68 22.9078 180.437 22.9172 180.278 22.9265V22.6325C180.661 22.6325 180.932 22.5625 181.09 22.4225C181.258 22.2825 181.342 22.0165 181.342 21.6245V17.2425C181.342 16.8225 181.268 16.5145 181.118 16.3185C180.969 16.1132 180.689 16.0105 180.278 16.0105V15.7165C180.577 15.7445 180.866 15.7585 181.146 15.7585C181.417 15.7585 181.674 15.7445 181.916 15.7165C182.168 15.6792 182.397 15.6278 182.602 15.5625V17.2145C182.845 16.5798 183.181 16.1412 183.61 15.8985C184.049 15.6465 184.506 15.5205 184.982 15.5205Z" fill="black"/>
</svg>
