<svg width="25" height="16" viewBox="0 0 25 16" fill="none" xmlns="http://www.w3.org/2000/svg">
<path d="M24.9998 8C24.9998 12.3897 21.6537 16 17.4999 16C13.3846 16 10 12.3897 10 8C10 3.61026 13.3461 0 17.4614 0C21.6537 0 24.9998 3.61026 24.9998 8Z" fill="#717171"/>
<path d="M14.9613 8.04103C14.9613 7.46667 14.8844 6.89231 14.8074 6.35897H10.1921C10.2306 6.07179 10.3075 5.82564 10.3844 5.49744H14.4998C14.4228 5.21026 14.3074 4.92308 14.1921 4.6359H10.6921C10.8075 4.34872 10.9613 4.10256 11.1152 3.77436H13.769C13.6151 3.48718 13.4228 3.2 13.1921 2.91282H11.7306C11.9613 2.62564 12.1921 2.37949 12.4998 2.09231C11.1921 0.779487 9.42291 0 7.46141 0C3.38456 0.123077 0 3.61026 0 8C0 12.3897 3.3461 16 7.49987 16C9.46138 16 11.1921 15.1795 12.5382 13.9077C12.8075 13.6615 13.0382 13.3744 13.3075 13.0462H11.769C11.5767 12.8 11.3844 12.5128 11.2306 12.2256H13.8459C13.9998 11.9795 14.1536 11.6923 14.269 11.3641H10.769C10.6537 11.1179 10.5383 10.8308 10.4614 10.5026H14.5767C14.8074 9.7641 14.9613 8.94359 14.9613 8.04103Z" fill="#4D4D4D"/>
<path d="M10.1533 10.0513L10.2687 9.3128C10.2303 9.3128 10.1533 9.35383 10.0764 9.35383C9.80719 9.35383 9.76873 9.18973 9.80719 9.10768L10.038 7.63075H10.461L10.5764 6.81024H10.1918L10.2687 6.31793H9.46104C9.46104 6.31793 8.99951 9.10768 8.99951 9.43588C8.99951 9.92819 9.26874 10.1743 9.65335 10.1743C9.88411 10.1743 10.0764 10.0923 10.1533 10.0513Z" fill="white"/>
<path d="M10.4224 8.69745C10.4224 9.88719 11.1916 10.1744 11.807 10.1744C12.3839 10.1744 12.6531 10.0513 12.6531 10.0513L12.8069 9.23078C12.8069 9.23078 12.3839 9.43591 11.9608 9.43591C11.0762 9.43591 11.23 8.73847 11.23 8.73847H12.8454C12.8454 8.73847 12.9608 8.20514 12.9608 7.95899C12.9608 7.42565 12.6916 6.72822 11.807 6.72822C11.0377 6.68719 10.4224 7.63078 10.4224 8.69745ZM11.807 7.46668C12.23 7.46668 12.1531 8.00001 12.1531 8.04104H11.2685C11.307 8.00001 11.3839 7.46668 11.807 7.46668Z" fill="white"/>
<path d="M16.8451 10.0512L16.9989 9.10765C16.9989 9.10765 16.6143 9.31278 16.3067 9.31278C15.7682 9.31278 15.499 8.8615 15.499 8.32817C15.499 7.30253 15.9605 6.76919 16.5374 6.76919C16.922 6.76919 17.2682 7.01535 17.2682 7.01535L17.3836 6.11278C17.3836 6.11278 16.922 5.90765 16.4605 5.90765C15.5374 5.90765 14.6528 6.76919 14.6528 8.36919C14.6528 9.43586 15.1144 10.1333 16.0759 10.1333C16.422 10.1743 16.8451 10.0512 16.8451 10.0512Z" fill="white"/>
<path d="M5.80661 6.68719C5.26816 6.68719 4.84509 6.8513 4.84509 6.8513L4.72971 7.58976C4.72971 7.58976 5.07586 7.42566 5.61431 7.42566C5.88354 7.42566 6.1143 7.46668 6.1143 7.71284C6.1143 7.87694 6.07584 7.91796 6.07584 7.91796H5.72969C5.0374 7.91796 4.30664 8.20514 4.30664 9.18976C4.30664 9.96925 4.76817 10.1333 5.07586 10.1333C5.61431 10.1333 5.88354 9.76412 5.922 9.76412L5.88354 10.0923H6.53737L6.84506 7.75386C6.84506 6.72822 6.07584 6.68719 5.80661 6.68719ZM5.96046 8.57437C5.96046 8.69745 5.88354 9.39489 5.42201 9.39489C5.19124 9.39489 5.11432 9.18976 5.11432 9.06668C5.11432 8.86155 5.2297 8.57437 5.84508 8.57437C5.922 8.57437 5.96046 8.57437 5.96046 8.57437Z" fill="white"/>
<path d="M7.61533 10.1334C7.80764 10.1334 8.80762 10.1744 8.80762 9.02567C8.80762 7.959 7.8461 8.16413 7.8461 7.75387C7.8461 7.54874 7.99994 7.46669 8.26917 7.46669C8.38455 7.46669 8.80762 7.50772 8.80762 7.50772L8.923 6.72823C8.923 6.72823 8.65377 6.64618 8.15378 6.64618C7.57687 6.64618 6.9615 6.89233 6.9615 7.75387C6.9615 8.73849 7.96148 8.65644 7.96148 9.02567C7.96148 9.27182 7.69225 9.31285 7.49995 9.31285C7.1538 9.31285 6.76919 9.18977 6.76919 9.18977L6.65381 9.96926C6.73073 10.0513 6.9615 10.1334 7.61533 10.1334Z" fill="white"/>
<path d="M23.4616 6.03076L23.3077 7.17948C23.3077 7.17948 23 6.76922 22.5385 6.76922C21.8078 6.76922 21.1924 7.71281 21.1924 8.82051C21.1924 9.51794 21.5001 10.2154 22.1924 10.2154C22.6539 10.2154 22.9616 9.88717 22.9616 9.88717L22.9231 10.1744H23.7308L24.3077 6.11281L23.4616 6.03076ZM23.077 8.24615C23.077 8.69743 22.8847 9.31281 22.4231 9.31281C22.1539 9.31281 22.0001 9.06666 22.0001 8.61538C22.0001 7.91794 22.2693 7.50768 22.6539 7.50768C22.9231 7.54871 23.077 7.75384 23.077 8.24615Z" fill="white"/>
<path d="M1.4616 10.0923L1.92313 7.0564L2.00005 10.0923H2.5385L3.57695 7.0564L3.15388 10.0923H4.00002L4.65385 6.03076H3.34618L2.5385 8.53333L2.50004 6.03076H1.34622L0.692383 10.0923H1.4616Z" fill="white"/>
<path d="M13.7694 10.0923C14.0001 8.69743 14.0386 7.54871 14.6155 7.75384C14.6924 7.22051 14.8078 6.97435 14.8847 6.76923H14.7309C14.3847 6.76923 14.0771 7.26153 14.0771 7.26153L14.154 6.81025H13.3848L12.8848 10.0923H13.7694Z" fill="white"/>
<path d="M18.6919 6.68719C18.1534 6.68719 17.7303 6.8513 17.7303 6.8513L17.615 7.58976C17.615 7.58976 17.9611 7.42566 18.4996 7.42566C18.7688 7.42566 18.9996 7.46668 18.9996 7.71284C18.9996 7.87694 18.9611 7.91796 18.9611 7.91796H18.6149C17.9227 7.91796 17.1919 8.20514 17.1919 9.18976C17.1919 9.96925 17.6534 10.1333 17.9611 10.1333C18.4996 10.1333 18.7688 9.76412 18.8073 9.76412L18.7688 10.0923H19.4995L19.8072 7.75386C19.8072 6.72822 18.9611 6.68719 18.6919 6.68719ZM18.8842 8.57437C18.8842 8.69745 18.8073 9.39489 18.3457 9.39489C18.115 9.39489 18.038 9.18976 18.038 9.06668C18.038 8.86155 18.1534 8.57437 18.7688 8.57437C18.8457 8.57437 18.8457 8.57437 18.8842 8.57437Z" fill="white"/>
<path d="M20.4227 10.0923C20.6535 8.69743 20.6919 7.54871 21.2688 7.75384C21.3457 7.22051 21.4611 6.97435 21.5381 6.76923H21.3842C21.0381 6.76923 20.7304 7.26153 20.7304 7.26153L20.8073 6.81025H20.0381L19.5381 10.0923H20.4227Z" fill="white"/>
</svg>
