<svg width="22" height="22" viewBox="0 0 22 22" fill="none" xmlns="http://www.w3.org/2000/svg">
<path d="M11 13.0625C12.1391 13.0625 13.0625 12.1391 13.0625 11C13.0625 9.86091 12.1391 8.9375 11 8.9375C9.86091 8.9375 8.9375 9.86091 8.9375 11C8.9375 12.1391 9.86091 13.0625 11 13.0625Z" fill="#4B5563"/>
<path d="M17.875 13.0625C19.0141 13.0625 19.9375 12.1391 19.9375 11C19.9375 9.86091 19.0141 8.9375 17.875 8.9375C16.7359 8.9375 15.8125 9.86091 15.8125 11C15.8125 12.1391 16.7359 13.0625 17.875 13.0625Z" fill="#4B5563"/>
<path d="M4.125 13.0625C5.26409 13.0625 6.1875 12.1391 6.1875 11C6.1875 9.86091 5.26409 8.9375 4.125 8.9375C2.98591 8.9375 2.0625 9.86091 2.0625 11C2.0625 12.1391 2.98591 13.0625 4.125 13.0625Z" fill="#4B5563"/>
</svg>
