<svg width="34" height="10" viewBox="0 0 34 10" fill="none" xmlns="http://www.w3.org/2000/svg">
<path d="M31.7131 0.142883H29.5756C28.9294 0.142883 28.4324 0.333359 28.1341 0.952407L24.0581 9.85717H26.9411C26.9411 9.85717 27.4382 8.66669 27.5376 8.38098C27.8359 8.38098 30.6692 8.38098 31.0669 8.38098C31.1663 8.71431 31.4148 9.80955 31.4148 9.80955H33.9996L31.7131 0.142883ZM28.333 6.38098C28.5815 5.80955 29.4265 3.66669 29.4265 3.66669C29.4265 3.71431 29.6751 3.09526 29.7745 2.76193L29.9733 3.61907C29.9733 3.61907 30.5201 5.95241 30.6195 6.4286H28.333V6.38098Z" fill="#303030"/>
<path d="M24.2571 6.66667C24.2571 8.66667 22.3682 10 19.4354 10C18.1928 10 16.9998 9.7619 16.3536 9.47619L16.7512 7.28571L17.0992 7.42857C17.9939 7.80952 18.5904 7.95238 19.684 7.95238C20.4793 7.95238 21.3243 7.66667 21.3243 7C21.3243 6.57143 20.9764 6.28571 19.8828 5.80952C18.839 5.33333 17.4471 4.57143 17.4471 3.19048C17.4471 1.28571 19.3857 0 22.1197 0C23.1635 0 24.0583 0.190476 24.605 0.428571L24.2074 2.52381L24.0085 2.33333C23.5115 2.14286 22.8653 1.95238 21.9208 1.95238C20.877 2 20.3799 2.42857 20.3799 2.80952C20.3799 3.2381 20.9764 3.57143 21.9208 4C23.5115 4.71429 24.2571 5.52381 24.2571 6.66667Z" fill="#2D2D2D"/>
<path d="M0 0.238084L0.0497076 0.0476074H4.32456C4.92105 0.0476074 5.36842 0.238084 5.51754 0.857131L6.46199 5.14285C5.51754 2.85713 3.33041 0.999988 0 0.238084Z" fill="#7B7B7B"/>
<path d="M12.4761 0.142895L8.15153 9.80956H5.21878L2.7334 1.71432C4.52287 2.80956 6.0141 4.52385 6.56088 5.71432L6.85913 6.71432L9.54334 0.0952759H12.4761V0.142895Z" fill="#2D2D2D"/>
<path d="M13.6192 0.0952759H16.3531L14.6133 9.80956H11.8794L13.6192 0.0952759Z" fill="#2D2D2D"/>
</svg>
