<svg width="50" height="12" viewBox="0 0 50 12" fill="none" xmlns="http://www.w3.org/2000/svg">
<path d="M19.0414 5.14283C18.9118 6.09521 18.1346 6.09521 17.4222 6.09521H17.0336L17.3574 4.25394C17.3574 4.12696 17.4869 4.06347 17.6165 4.06347H17.8108C18.3289 4.06347 18.7823 4.06347 19.0414 4.31744C19.0414 4.5714 19.0414 4.82537 19.0414 5.14283ZM18.7175 2.60315H15.9325C15.7382 2.60315 15.6087 2.73013 15.5439 2.92061L14.4429 9.90474C14.4429 10.0317 14.5076 10.1587 14.7019 10.1587H15.9973C16.1916 10.1587 16.3211 10.0317 16.3859 9.84125L16.7097 7.93648C16.7097 7.74601 16.904 7.61902 17.0983 7.61902H18.0051C19.8186 7.61902 20.8549 6.73013 21.1787 5.01585C21.3082 4.25394 21.1787 3.68251 20.8549 3.23807C20.3367 2.85712 19.6243 2.60315 18.7175 2.60315Z" fill="#1D1D1D"/>
<path d="M25.1296 7.68254C25.0001 8.44444 24.4172 8.95238 23.64 8.95238C23.2514 8.95238 22.9275 8.82539 22.7332 8.57143C22.5389 8.31746 22.4741 8 22.5389 7.68254C22.6684 6.92063 23.2514 6.41269 24.0286 6.41269C24.4172 6.41269 24.741 6.53968 24.9353 6.79365C25.0649 6.98412 25.1944 7.30158 25.1296 7.68254ZM26.9431 5.14285H25.6478C25.5182 5.14285 25.4534 5.20635 25.3887 5.33333L25.3239 5.71428L25.2592 5.5873C25.0001 5.20635 24.3524 5.01587 23.7047 5.01587C22.2151 5.01587 20.9845 6.09524 20.7254 7.61904C20.5959 8.38095 20.7902 9.07936 21.2436 9.5873C21.6322 10.0317 22.2151 10.2222 22.9275 10.2222C24.0933 10.2222 24.741 9.46031 24.741 9.46031L24.6763 9.84127C24.6763 9.96825 24.741 10.0952 24.9353 10.0952H26.1011C26.2954 10.0952 26.425 9.96825 26.4897 9.77778L27.2022 5.33333C27.2022 5.26984 27.1374 5.14285 26.9431 5.14285Z" fill="#1D1D1D"/>
<path d="M34.0032 5.14288H32.643C32.5135 5.14288 32.384 5.20637 32.3192 5.33336L30.5057 8.00003L29.7285 5.46034C29.6637 5.26987 29.5342 5.20637 29.3399 5.20637H28.0445C27.915 5.20637 27.7855 5.33336 27.8502 5.52383L29.3399 9.71431L27.9798 11.6191C27.8502 11.7461 27.9798 12 28.1741 12H29.5342C29.6637 12 29.7933 11.9365 29.858 11.8095L34.2622 5.52383C34.327 5.33336 34.1975 5.14288 34.0032 5.14288Z" fill="#1D1D1D"/>
<path d="M38.7308 5.14283C38.6013 6.09521 37.8241 6.09521 37.1116 6.09521H36.723L37.0469 4.25394C37.0469 4.12696 37.1764 4.06347 37.3059 4.06347H37.5002C38.0184 4.06347 38.4718 4.06347 38.7308 4.31744C38.7956 4.5714 38.7956 4.82537 38.7308 5.14283ZM38.407 2.60315H35.622C35.4277 2.60315 35.2981 2.73013 35.2334 2.92061L34.1323 9.90474C34.1323 10.0317 34.1971 10.1587 34.3914 10.1587H35.8163C35.9458 10.1587 36.0754 10.0952 36.0754 9.90474L36.3992 7.93648C36.3992 7.74601 36.5935 7.61902 36.7878 7.61902H37.6945C39.508 7.61902 40.5443 6.73013 40.8682 5.01585C40.9977 4.25394 40.8682 3.68251 40.5443 3.23807C40.091 2.85712 39.3785 2.60315 38.407 2.60315Z" fill="#434343"/>
<path d="M44.884 7.68254C44.7545 8.44444 44.1716 8.95238 43.3944 8.95238C43.0058 8.95238 42.6819 8.82539 42.4876 8.57143C42.2933 8.31746 42.2285 8 42.2933 7.68254C42.4228 6.92063 43.0058 6.41269 43.783 6.41269C44.1716 6.41269 44.4954 6.53968 44.6897 6.79365C44.8193 6.98412 44.9488 7.30158 44.884 7.68254ZM46.6975 5.14285H45.4022C45.2726 5.14285 45.2078 5.20635 45.1431 5.33333L45.0783 5.71428L45.0136 5.5873C44.7545 5.20635 44.1068 5.01587 43.4591 5.01587C41.9695 5.01587 40.7389 6.09524 40.4798 7.61904C40.3503 8.38095 40.5446 9.07936 40.998 9.5873C41.3866 10.0317 41.9695 10.2222 42.6819 10.2222C43.8477 10.2222 44.4954 9.46031 44.4954 9.46031L44.4306 9.84127C44.4306 9.96825 44.4954 10.0952 44.6897 10.0952H45.8555C46.0498 10.0952 46.1794 9.96825 46.2441 9.77778L46.9566 5.33333C46.9566 5.26984 46.827 5.14285 46.6975 5.14285Z" fill="#434343"/>
<path d="M48.2513 2.79363L47.0854 9.90474C47.0854 10.0317 47.1502 10.1587 47.3445 10.1587H48.5103C48.7046 10.1587 48.8342 10.0317 48.899 9.84125L50 2.85712C50 2.73013 49.9352 2.60315 49.7409 2.60315H48.4456C48.3808 2.60315 48.316 2.73013 48.2513 2.79363Z" fill="#434343"/>
<path d="M2.9151 11.4921L3.1094 10.1588H2.65602H0.38916L1.94359 0.444473C1.94359 0.444473 1.94358 0.380981 2.00835 0.380981H2.07312H5.8944C7.12498 0.380981 8.03173 0.63495 8.4851 1.14289C8.67941 1.39685 8.80894 1.65082 8.87371 1.90479C8.93848 2.22225 8.93848 2.53971 8.87371 2.98416V3.23812L9.06802 3.36511C9.26232 3.4286 9.39185 3.55559 9.52139 3.68257C9.71569 3.87305 9.84523 4.12701 9.84523 4.44447C9.90999 4.76193 9.90999 5.14289 9.78045 5.58733C9.65092 6.09527 9.52139 6.47622 9.32708 6.85717C9.13278 7.17463 8.87371 7.4286 8.61464 7.68257C8.35557 7.87304 7.96696 8.00003 7.64312 8.12701C7.25452 8.1905 6.86592 8.254 6.41254 8.254H6.08871C5.8944 8.254 5.7001 8.31749 5.5058 8.44447C5.37627 8.57146 5.24673 8.76193 5.18196 8.95241V9.07939L4.79335 11.4286V11.4921V11.5556C4.79335 11.5556 4.79335 11.5556 4.72858 11.5556H2.9151V11.4921Z" fill="#1E1E1E"/>
<path d="M9.32696 2.98413C9.32696 3.04762 9.32696 3.11112 9.26219 3.17461C8.74405 5.71429 7.0601 6.53969 4.858 6.53969H3.75695C3.49788 6.53969 3.23881 6.73016 3.23881 6.98413L2.6559 10.5397L2.52637 11.5556C2.52637 11.746 2.6559 11.873 2.78543 11.873H4.79323C5.0523 11.873 5.2466 11.6825 5.2466 11.4921V11.3651L5.63521 9.07937V8.95238C5.69998 8.69842 5.89428 8.57143 6.08858 8.57143H6.41242C8.35545 8.57143 9.8451 7.80953 10.2337 5.58731C10.428 4.63493 10.2985 3.87302 9.8451 3.36508C9.71557 3.2381 9.52126 3.11111 9.32696 2.98413Z" fill="#434343"/>
<path d="M8.80877 2.79363C8.744 2.79363 8.67924 2.73013 8.54971 2.73013C8.48494 2.73013 8.3554 2.66664 8.29063 2.66664C7.96679 2.60315 7.64295 2.60315 7.31912 2.60315H4.33982C4.27505 2.60315 4.21028 2.60315 4.14551 2.66664C4.01598 2.73013 3.88644 2.85712 3.88644 2.9841L3.23877 6.92061V7.04759C3.30354 6.79362 3.49783 6.60315 3.7569 6.60315H4.85796C7.06005 6.60315 8.744 5.71426 9.26214 3.23807C9.26214 3.17458 9.26215 3.11109 9.32691 3.04759C9.19738 2.9841 9.06784 2.92061 8.9383 2.85712C8.87354 2.79363 8.80877 2.79363 8.80877 2.79363Z" fill="#0E0E0E"/>
<path d="M3.88605 2.98412C3.88605 2.85714 4.01558 2.73016 4.14512 2.66666C4.20989 2.66666 4.27466 2.60317 4.33942 2.60317H7.31872C7.64256 2.60317 8.03117 2.60317 8.29024 2.66666C8.355 2.66666 8.48455 2.66667 8.54931 2.73016C8.61408 2.73016 8.67884 2.79365 8.80838 2.79365C8.87315 2.79365 8.87315 2.79365 8.93791 2.85714C9.06745 2.92063 9.19699 2.98413 9.32652 3.04762C9.45606 2.09524 9.32652 1.46032 8.80838 0.888887C8.22547 0.253967 7.18919 0 5.89384 0H2.07256C1.81349 0 1.55442 0.190474 1.55442 0.444442L0 10.2222C0 10.4127 0.129535 10.6032 0.323838 10.6032H2.65546L3.23838 6.92064L3.88605 2.98412Z" fill="#1E1E1E"/>
</svg>
